<mxfile host="app.diagrams.net" modified="2023-01-21T08:51:42.752Z" agent="5.0 (Windows NT 10.0; Win64; x64) AppleWebKit/537.36 (KHTML, like Gecko) Chrome/109.0.0.0 Safari/537.36" version="20.8.3" etag="f-XuaV9_pi8jMx17r1St" type="github">
  <diagram id="8FQEOjg_LCeAdv4lqY5J" name="Page-1">
    <mxGraphModel dx="1434" dy="764" grid="1" gridSize="10" guides="1" tooltips="1" connect="1" arrows="1" fold="1" page="1" pageScale="1" pageWidth="850" pageHeight="1100" math="0" shadow="0">
      <root>
        <mxCell id="0" />
        <mxCell id="1" parent="0" />
        <mxCell id="I--MZscv-x9yu5q0r1WH-5" style="edgeStyle=orthogonalEdgeStyle;rounded=0;orthogonalLoop=1;jettySize=auto;html=1;" edge="1" parent="1" target="I--MZscv-x9yu5q0r1WH-2">
          <mxGeometry relative="1" as="geometry">
            <mxPoint x="140" y="130" as="sourcePoint" />
          </mxGeometry>
        </mxCell>
        <mxCell id="I--MZscv-x9yu5q0r1WH-7" style="edgeStyle=orthogonalEdgeStyle;rounded=0;orthogonalLoop=1;jettySize=auto;html=1;" edge="1" parent="1" source="I--MZscv-x9yu5q0r1WH-2">
          <mxGeometry relative="1" as="geometry">
            <mxPoint x="530" y="90" as="targetPoint" />
          </mxGeometry>
        </mxCell>
        <mxCell id="I--MZscv-x9yu5q0r1WH-11" style="edgeStyle=orthogonalEdgeStyle;rounded=0;orthogonalLoop=1;jettySize=auto;html=1;" edge="1" parent="1" source="I--MZscv-x9yu5q0r1WH-2" target="I--MZscv-x9yu5q0r1WH-9">
          <mxGeometry relative="1" as="geometry" />
        </mxCell>
        <mxCell id="I--MZscv-x9yu5q0r1WH-2" value="" style="shape=image;html=1;verticalAlign=top;verticalLabelPosition=bottom;labelBackgroundColor=#ffffff;imageAspect=0;aspect=fixed;image=https://cdn1.iconfinder.com/data/icons/picons-social/57/github_rounded-128.png" vertex="1" parent="1">
          <mxGeometry x="290" y="66" width="128" height="128" as="geometry" />
        </mxCell>
        <mxCell id="I--MZscv-x9yu5q0r1WH-13" style="edgeStyle=orthogonalEdgeStyle;rounded=0;orthogonalLoop=1;jettySize=auto;html=1;" edge="1" parent="1" source="I--MZscv-x9yu5q0r1WH-8">
          <mxGeometry relative="1" as="geometry">
            <mxPoint x="730" y="110" as="targetPoint" />
            <Array as="points">
              <mxPoint x="640" y="110" />
              <mxPoint x="640" y="110" />
            </Array>
          </mxGeometry>
        </mxCell>
        <mxCell id="I--MZscv-x9yu5q0r1WH-8" value="" style="outlineConnect=0;dashed=0;verticalLabelPosition=bottom;verticalAlign=top;align=center;html=1;shape=mxgraph.aws3.elastic_beanstalk;fillColor=#F58534;gradientColor=none;" vertex="1" parent="1">
          <mxGeometry x="545.25" y="38.5" width="74.75" height="93" as="geometry" />
        </mxCell>
        <mxCell id="I--MZscv-x9yu5q0r1WH-16" style="edgeStyle=orthogonalEdgeStyle;rounded=0;orthogonalLoop=1;jettySize=auto;html=1;" edge="1" parent="1" source="I--MZscv-x9yu5q0r1WH-9">
          <mxGeometry relative="1" as="geometry">
            <mxPoint x="579" y="360" as="targetPoint" />
          </mxGeometry>
        </mxCell>
        <mxCell id="I--MZscv-x9yu5q0r1WH-9" value="" style="sketch=0;points=[[0,0,0],[0.25,0,0],[0.5,0,0],[0.75,0,0],[1,0,0],[0,1,0],[0.25,1,0],[0.5,1,0],[0.75,1,0],[1,1,0],[0,0.25,0],[0,0.5,0],[0,0.75,0],[1,0.25,0],[1,0.5,0],[1,0.75,0]];outlineConnect=0;fontColor=#232F3E;gradientColor=#60A337;gradientDirection=north;fillColor=#277116;strokeColor=#ffffff;dashed=0;verticalLabelPosition=bottom;verticalAlign=top;align=center;html=1;fontSize=12;fontStyle=0;aspect=fixed;shape=mxgraph.aws4.resourceIcon;resIcon=mxgraph.aws4.s3;" vertex="1" parent="1">
          <mxGeometry x="540" y="190" width="78" height="78" as="geometry" />
        </mxCell>
        <mxCell id="I--MZscv-x9yu5q0r1WH-12" style="edgeStyle=orthogonalEdgeStyle;rounded=0;orthogonalLoop=1;jettySize=auto;html=1;" edge="1" parent="1" source="I--MZscv-x9yu5q0r1WH-10" target="I--MZscv-x9yu5q0r1WH-8">
          <mxGeometry relative="1" as="geometry" />
        </mxCell>
        <mxCell id="I--MZscv-x9yu5q0r1WH-10" value="" style="sketch=0;points=[[0,0,0],[0.25,0,0],[0.5,0,0],[0.75,0,0],[1,0,0],[0,1,0],[0.25,1,0],[0.5,1,0],[0.75,1,0],[1,1,0],[0,0.25,0],[0,0.5,0],[0,0.75,0],[1,0.25,0],[1,0.5,0],[1,0.75,0]];outlineConnect=0;fontColor=#232F3E;gradientColor=#4D72F3;gradientDirection=north;fillColor=#3334B9;strokeColor=#ffffff;dashed=0;verticalLabelPosition=bottom;verticalAlign=top;align=center;html=1;fontSize=12;fontStyle=0;aspect=fixed;shape=mxgraph.aws4.resourceIcon;resIcon=mxgraph.aws4.rds;" vertex="1" parent="1">
          <mxGeometry x="740" y="46" width="78" height="78" as="geometry" />
        </mxCell>
        <mxCell id="I--MZscv-x9yu5q0r1WH-17" style="edgeStyle=orthogonalEdgeStyle;rounded=0;orthogonalLoop=1;jettySize=auto;html=1;entryX=0.75;entryY=1;entryDx=0;entryDy=0;entryPerimeter=0;" edge="1" parent="1" source="I--MZscv-x9yu5q0r1WH-14" target="I--MZscv-x9yu5q0r1WH-9">
          <mxGeometry relative="1" as="geometry">
            <Array as="points">
              <mxPoint x="599" y="319" />
            </Array>
          </mxGeometry>
        </mxCell>
        <mxCell id="I--MZscv-x9yu5q0r1WH-14" value="" style="fontColor=#0066CC;verticalAlign=top;verticalLabelPosition=bottom;labelPosition=center;align=center;html=1;outlineConnect=0;fillColor=#CCCCCC;strokeColor=#6881B3;gradientColor=none;gradientDirection=north;strokeWidth=2;shape=mxgraph.networks.pc;" vertex="1" parent="1">
          <mxGeometry x="533" y="370" width="100" height="70" as="geometry" />
        </mxCell>
        <mxCell id="I--MZscv-x9yu5q0r1WH-15" value="" style="fontColor=#0066CC;verticalAlign=top;verticalLabelPosition=bottom;labelPosition=center;align=center;html=1;outlineConnect=0;fillColor=#CCCCCC;strokeColor=#6881B3;gradientColor=none;gradientDirection=north;strokeWidth=2;shape=mxgraph.networks.desktop_pc;" vertex="1" parent="1">
          <mxGeometry x="60" y="80" width="50" height="80" as="geometry" />
        </mxCell>
      </root>
    </mxGraphModel>
  </diagram>
</mxfile>
